<?xml version="1.0" encoding="utf-8"?>
<!-- Generator: Adobe Illustrator 16.0.0, SVG Export Plug-In . SVG Version: 6.00 Build 0)  -->
<!DOCTYPE svg PUBLIC "-//W3C//DTD SVG 1.1//EN" "http://www.w3.org/Graphics/SVG/1.1/DTD/svg11.dtd">
<svg version="1.1" id="Layer_1" xmlns="http://www.w3.org/2000/svg" xmlns:xlink="http://www.w3.org/1999/xlink" x="0px" y="0px"
	 width="640px" height="640px" viewBox="0 0 640 640" enable-background="new 0 0 640 640" xml:space="preserve">
<title></title>
<g id="Google_Keyboard">
	<rect x="80.5" y="283.5" fill="#E11837" width="478" height="318"/>
	<path fill="#01796F" d="M550.5,244.5H474c0.216-3.567,0.216-7.143,0-10.71V66c0-28.167-22.833-51-51-51H219
		c-28.167,0-51,22.833-51,51v167.79c-0.216,3.567-0.216,7.143,0,10.71H91.5c-28.167,0-51,22.833-51,51V576c0,28.167,22.833,51,51,51
		h459c28.167,0,51-22.833,51-51V295.5C601.5,267.333,578.667,244.5,550.5,244.5z M454.875,308.25v51
		c0,7.042-5.708,12.75-12.75,12.75h-51c-7.042,0-12.75-5.708-12.75-12.75v-4.846l62.985-51l0,0c2.295-1.785,4.08-4.08,6.12-6.12
		C451.796,299.276,454.646,303.502,454.875,308.25z M282.75,410.25c0-7.042,5.708-12.75,12.75-12.75h51
		c7.042,0,12.75,5.708,12.75,12.75v51c0,7.042-5.708,12.75-12.75,12.75h-51c-7.042,0-12.75-5.708-12.75-12.75V410.25z
		 M378.375,410.25c0-7.042,5.708-12.75,12.75-12.75h51c7.042,0,12.75,5.708,12.75,12.75v51c0,7.042-5.708,12.75-12.75,12.75h-51
		c-7.042,0-12.75-5.708-12.75-12.75V410.25z M193.5,66c0-14.083,11.417-25.5,25.5-25.5h204c14.083,0,25.5,11.417,25.5,25.5v167.79
		c0.057,19.188-8.567,37.372-23.46,49.47l0,0L321,368.175l-104.04-85.17c-14.824-12.042-23.439-30.117-23.46-49.215V66z
		 M200.64,302.895l62.985,51v4.847c0,7.041-5.708,12.75-12.75,12.75h-51c-7.042,0-12.75-5.709-12.75-12.75v-51
		c-0.458-4.977,2.035-9.762,6.375-12.24C196.815,298.815,198.6,300.855,200.64,302.895z M263.625,410.25v51
		c0,7.042-5.708,12.75-12.75,12.75h-51c-7.042,0-12.75-5.708-12.75-12.75v-51c0-7.042,5.708-12.75,12.75-12.75h51
		C257.917,397.5,263.625,403.208,263.625,410.25z M91.5,308.25c0-7.042,5.708-12.75,12.75-12.75h51c7.042,0,12.75,5.708,12.75,12.75
		v51c0,7.042-5.708,12.75-12.75,12.75h-51c-7.042,0-12.75-5.708-12.75-12.75V308.25z M91.5,461.25v-51
		c0-7.042,5.708-12.75,12.75-12.75h51c7.042,0,12.75,5.708,12.75,12.75v51c0,7.042-5.708,12.75-12.75,12.75h-51
		C97.208,474,91.5,468.292,91.5,461.25z M486.75,563.25c0,7.042-5.708,12.75-12.75,12.75H168c-7.042,0-12.75-5.708-12.75-12.75v-51
		c0-7.042,5.708-12.75,12.75-12.75h306c7.042,0,12.75,5.708,12.75,12.75V563.25z M550.5,461.25c0,7.042-5.708,12.75-12.75,12.75h-51
		c-7.042,0-12.75-5.708-12.75-12.75v-51c0-7.042,5.708-12.75,12.75-12.75h51c7.042,0,12.75,5.708,12.75,12.75V461.25z M550.5,359.25
		c0,7.042-5.708,12.75-12.75,12.75h-51c-7.042,0-12.75-5.708-12.75-12.75v-51c0-7.042,5.708-12.75,12.75-12.75h51
		c7.042,0,12.75,5.708,12.75,12.75V359.25z"/>
	<text transform="matrix(1 0 0 1 233.5 260.5)" fill="#E11837" font-family="'Vrinda'" font-size="300">স</text>
</g>
</svg>
